<?xml version="1.0" encoding="utf-8"?>
<!-- Generator: Adobe Illustrator 18.0.0, SVG Export Plug-In . SVG Version: 6.00 Build 0)  -->
<!DOCTYPE svg PUBLIC "-//W3C//DTD SVG 1.1//EN" "http://www.w3.org/Graphics/SVG/1.1/DTD/svg11.dtd">
<svg version="1.1" id="Layer_1" xmlns="http://www.w3.org/2000/svg" xmlns:xlink="http://www.w3.org/1999/xlink" x="0px" y="0px"
	 viewBox="0 0 851.1 237.3" enable-background="new 0 0 851.1 237.3" xml:space="preserve">
<g>
	<linearGradient id="SVGID_1_" gradientUnits="userSpaceOnUse" x1="447.7308" y1="1.4633" x2="447.7308" y2="236.0538">
		<stop  offset="0" style="stop-color:#AB2067"/>
		<stop  offset="0.5023" style="stop-color:#EE3D73"/>
		<stop  offset="1" style="stop-color:#CCDB2A"/>
	</linearGradient>
	<rect x="424" y="0" fill="url(#SVGID_1_)" width="47.5" height="237.3"/>
	<polygon fill="#CCDB2A" points="471.5,237.3 424,237.3 471.5,189.9 	"/>
	<polygon fill="#94C93D" points="471.5,189.9 424,237.3 424,189.9 	"/>
	<polygon fill="#DBB427" points="471.5,189.9 424,189.9 471.5,142.4 	"/>
	<polygon fill="#E99724" points="471.5,142.4 424,189.9 424,142.4 	"/>
	<polygon fill="#F06C61" points="471.5,142.4 424,142.4 471.5,94.9 	"/>
	<polygon fill="#F05572" points="471.5,94.9 424,142.4 424,94.9 	"/>
	<polygon fill="#EE3D73" points="471.5,94.9 424,94.9 471.5,47.5 	"/>
	<polygon fill="#E41D6C" points="471.5,47.5 424,94.9 424,47.5 	"/>
	<polygon fill="#CA216D" points="471.5,47.5 424,47.5 471.5,0 	"/>
	<polygon fill="#AB2067" points="471.5,0 424,47.5 424,0 	"/>
</g>
<g>
	<linearGradient id="SVGID_2_" gradientUnits="userSpaceOnUse" x1="400.7308" y1="1.4633" x2="400.7308" y2="236.0538">
		<stop  offset="0" style="stop-color:#AB2067"/>
		<stop  offset="0.5023" style="stop-color:#EE3D73"/>
		<stop  offset="1" style="stop-color:#CCDB2A"/>
	</linearGradient>
	<rect x="377" y="0" fill="url(#SVGID_2_)" width="47.5" height="237.3"/>
	<polygon fill="#CCDB2A" points="424.5,237.3 377,237.3 424.5,189.9 	"/>
	<polygon fill="#94C93D" points="424.5,189.9 377,237.3 377,189.9 	"/>
	<polygon fill="#DBB427" points="424.5,189.9 377,189.9 424.5,142.4 	"/>
	<polygon fill="#E99724" points="424.5,142.4 377,189.9 377,142.4 	"/>
	<polygon fill="#F06C61" points="424.5,142.4 377,142.4 424.5,94.9 	"/>
	<polygon fill="#F05572" points="424.5,94.9 377,142.4 377,94.9 	"/>
	<polygon fill="#EE3D73" points="424.5,94.9 377,94.9 424.5,47.5 	"/>
	<polygon fill="#E41D6C" points="424.5,47.5 377,94.9 377,47.5 	"/>
	<polygon fill="#CA216D" points="424.5,47.5 377,47.5 424.5,0 	"/>
	<polygon fill="#AB2067" points="424.5,0 377,47.5 377,0 	"/>
</g>
<g>
	<linearGradient id="SVGID_3_" gradientUnits="userSpaceOnUse" x1="495.1926" y1="1.4633" x2="495.1926" y2="236.0538">
		<stop  offset="0" style="stop-color:#AB2067"/>
		<stop  offset="0.5023" style="stop-color:#EE3D73"/>
		<stop  offset="1" style="stop-color:#CCDB2A"/>
	</linearGradient>
	<rect x="471.5" y="0" fill="url(#SVGID_3_)" width="47.5" height="237.3"/>
	<polygon fill="#CCDB2A" points="518.9,237.3 471.5,237.3 518.9,189.9 	"/>
	<polygon fill="#94C93D" points="518.9,189.9 471.5,237.3 471.5,189.9 	"/>
	<polygon fill="#DBB427" points="518.9,189.9 471.5,189.9 518.9,142.4 	"/>
	<polygon fill="#E99724" points="518.9,142.4 471.5,189.9 471.5,142.4 	"/>
	<polygon fill="#F06C61" points="518.9,142.4 471.5,142.4 518.9,94.9 	"/>
	<polygon fill="#F05572" points="518.9,94.9 471.5,142.4 471.5,94.9 	"/>
	<polygon fill="#EE3D73" points="518.9,94.9 471.5,94.9 518.9,47.5 	"/>
	<polygon fill="#E41D6C" points="518.9,47.5 471.5,94.9 471.5,47.5 	"/>
	<polygon fill="#CA216D" points="518.9,47.5 471.5,47.5 518.9,0 	"/>
	<polygon fill="#AB2067" points="518.9,0 471.5,47.5 471.5,0 	"/>
</g>
<g>
	<linearGradient id="SVGID_4_" gradientUnits="userSpaceOnUse" x1="542.6543" y1="1.4633" x2="542.6543" y2="236.0538">
		<stop  offset="0" style="stop-color:#AB2067"/>
		<stop  offset="0.5023" style="stop-color:#EE3D73"/>
		<stop  offset="1" style="stop-color:#CCDB2A"/>
	</linearGradient>
	<rect x="518.9" y="0" fill="url(#SVGID_4_)" width="47.5" height="237.3"/>
	<polygon fill="#CCDB2A" points="566.4,237.3 518.9,237.3 566.4,189.9 	"/>
	<polygon fill="#94C93D" points="566.4,189.9 518.9,237.3 518.9,189.9 	"/>
	<polygon fill="#DBB427" points="566.4,189.9 518.9,189.9 566.4,142.4 	"/>
	<polygon fill="#E99724" points="566.4,142.4 518.9,189.9 518.9,142.4 	"/>
	<polygon fill="#F06C61" points="566.4,142.4 518.9,142.4 566.4,94.9 	"/>
	<polygon fill="#F05572" points="566.4,94.9 518.9,142.4 518.9,94.9 	"/>
	<polygon fill="#EE3D73" points="566.4,94.9 518.9,94.9 566.4,47.5 	"/>
	<polygon fill="#E41D6C" points="566.4,47.5 518.9,94.9 518.9,47.5 	"/>
	<polygon fill="#CA216D" points="566.4,47.5 518.9,47.5 566.4,0 	"/>
	<polygon fill="#AB2067" points="566.4,0 518.9,47.5 518.9,0 	"/>
</g>
<g>
	<linearGradient id="SVGID_5_" gradientUnits="userSpaceOnUse" x1="708.7446" y1="-2.239542e-06" x2="708.7446" y2="-2.251019e-06">
		<stop  offset="0.1288" style="stop-color:#CCDB2A"/>
		<stop  offset="0.6933" style="stop-color:#E41D6C"/>
		<stop  offset="1" style="stop-color:#AB2067"/>
	</linearGradient>
	<line fill="url(#SVGID_5_)" x1="566.4" y1="0" x2="851.1" y2="0"/>
	<polygon fill="#AB2067" points="851.1,0 803.7,47.5 803.7,0 	"/>
	<polygon fill="#E41D6C" points="803.7,47.5 756.2,94.9 756.2,47.5 	"/>
	<polygon fill="#CA216D" points="803.7,47.5 756.2,47.5 803.7,0 	"/>
	<polygon fill="#AB2067" points="803.7,0 756.2,47.5 756.2,0 	"/>
	<polygon fill="#F05572" points="756.2,94.9 708.7,142.4 708.7,94.9 	"/>
	<polygon fill="#EE3D73" points="756.2,94.9 708.7,94.9 756.2,47.5 	"/>
	<polygon fill="#E41D6C" points="756.2,47.5 708.7,94.9 708.7,47.5 	"/>
	<polygon fill="#CA216D" points="756.2,47.5 708.7,47.5 756.2,0 	"/>
	<polygon fill="#AB2067" points="756.2,0 708.7,47.5 708.7,0 	"/>
	<polygon fill="#E99724" points="708.7,142.4 661.3,189.8 661.3,142.4 	"/>
	<polygon fill="#F06C61" points="708.7,142.4 661.3,142.4 708.7,94.9 	"/>
	<polygon fill="#F05572" points="708.7,94.9 661.3,142.4 661.3,94.9 	"/>
	<polygon fill="#EE3D73" points="708.7,94.9 661.3,94.9 708.7,47.5 	"/>
	<polygon fill="#E41D6C" points="708.7,47.5 661.3,94.9 661.3,47.5 	"/>
	<polygon fill="#CA216D" points="708.7,47.5 661.3,47.5 708.7,0 	"/>
	<polygon fill="#AB2067" points="708.7,0 661.3,47.5 661.3,0 	"/>
	<polygon fill="#94C93D" points="661.3,189.8 613.8,237.3 613.8,189.8 	"/>
	<polygon fill="#DBB427" points="661.3,189.8 613.8,189.8 661.3,142.4 	"/>
	<polygon fill="#E99724" points="661.3,142.4 613.8,189.8 613.8,142.4 	"/>
	<polygon fill="#F06C61" points="661.3,142.4 613.8,142.4 661.3,94.9 	"/>
	<polygon fill="#F05572" points="661.3,94.9 613.8,142.4 613.8,94.9 	"/>
	<polygon fill="#EE3D73" points="661.3,94.9 613.8,94.9 661.3,47.5 	"/>
	<polygon fill="#E41D6C" points="661.3,47.5 613.8,94.9 613.8,47.5 	"/>
	<polygon fill="#CA216D" points="661.3,47.5 613.8,47.5 661.3,0 	"/>
	<polygon fill="#AB2067" points="661.3,0 613.8,47.5 613.8,0 	"/>
	<polygon fill="#CCDB2A" points="613.8,237.3 566.4,237.3 613.8,189.8 	"/>
	<polygon fill="#94C93D" points="613.8,189.8 566.4,237.3 566.4,189.8 	"/>
	<line fill="#94C93D" x1="566.4" y1="237.3" x2="613.8" y2="237.3"/>
	<polygon fill="#DBB427" points="613.8,189.8 566.4,189.8 613.8,142.4 	"/>
	<polygon fill="#E99724" points="613.8,142.4 566.4,189.8 566.4,142.4 	"/>
	<polygon fill="#F06C61" points="613.8,142.4 566.4,142.4 613.8,94.9 	"/>
	<polygon fill="#F05572" points="613.8,94.9 566.4,142.4 566.4,94.9 	"/>
	<polygon fill="#EE3D73" points="613.8,94.9 566.4,94.9 613.8,47.5 	"/>
	<polygon fill="#E41D6C" points="613.8,47.5 566.4,94.9 566.4,47.5 	"/>
	<polygon fill="#CA216D" points="613.8,47.5 566.4,47.5 613.8,0 	"/>
	<polygon fill="#AB2067" points="613.8,0 566.4,47.5 566.4,0 	"/>
</g>
<g>
	<linearGradient id="SVGID_6_" gradientUnits="userSpaceOnUse" x1="353.7308" y1="1.4633" x2="353.7308" y2="236.0538">
		<stop  offset="0" style="stop-color:#AB2067"/>
		<stop  offset="0.5023" style="stop-color:#EE3D73"/>
		<stop  offset="1" style="stop-color:#CCDB2A"/>
	</linearGradient>
	<rect x="330" y="0" fill="url(#SVGID_6_)" width="47.5" height="237.3"/>
	<polygon fill="#CCDB2A" points="377.5,237.3 330,237.3 377.5,189.9 	"/>
	<polygon fill="#94C93D" points="377.5,189.9 330,237.3 330,189.9 	"/>
	<polygon fill="#DBB427" points="377.5,189.9 330,189.9 377.5,142.4 	"/>
	<polygon fill="#E99724" points="377.5,142.4 330,189.9 330,142.4 	"/>
	<polygon fill="#F06C61" points="377.5,142.4 330,142.4 377.5,94.9 	"/>
	<polygon fill="#F05572" points="377.5,94.9 330,142.4 330,94.9 	"/>
	<polygon fill="#EE3D73" points="377.5,94.9 330,94.9 377.5,47.5 	"/>
	<polygon fill="#E41D6C" points="377.5,47.5 330,94.9 330,47.5 	"/>
	<polygon fill="#CA216D" points="377.5,47.5 330,47.5 377.5,0 	"/>
	<polygon fill="#AB2067" points="377.5,0 330,47.5 330,0 	"/>
</g>
<g>
	<linearGradient id="SVGID_7_" gradientUnits="userSpaceOnUse" x1="306.7308" y1="1.4633" x2="306.7308" y2="236.0538">
		<stop  offset="0" style="stop-color:#AB2067"/>
		<stop  offset="0.5023" style="stop-color:#EE3D73"/>
		<stop  offset="1" style="stop-color:#CCDB2A"/>
	</linearGradient>
	<rect x="283" y="0" fill="url(#SVGID_7_)" width="47.5" height="237.3"/>
	<polygon fill="#CCDB2A" points="330.5,237.3 283,237.3 330.5,189.9 	"/>
	<polygon fill="#94C93D" points="330.5,189.9 283,237.3 283,189.9 	"/>
	<polygon fill="#DBB427" points="330.5,189.9 283,189.9 330.5,142.4 	"/>
	<polygon fill="#E99724" points="330.5,142.4 283,189.9 283,142.4 	"/>
	<polygon fill="#F06C61" points="330.5,142.4 283,142.4 330.5,94.9 	"/>
	<polygon fill="#F05572" points="330.5,94.9 283,142.4 283,94.9 	"/>
	<polygon fill="#EE3D73" points="330.5,94.9 283,94.9 330.5,47.5 	"/>
	<polygon fill="#E41D6C" points="330.5,47.5 283,94.9 283,47.5 	"/>
	<polygon fill="#CA216D" points="330.5,47.5 283,47.5 330.5,0 	"/>
	<polygon fill="#AB2067" points="330.5,0 283,47.5 283,0 	"/>
</g>
<g>
	<linearGradient id="SVGID_8_" gradientUnits="userSpaceOnUse" x1="164.7309" y1="1.4633" x2="164.7309" y2="236.0538">
		<stop  offset="0" style="stop-color:#AB2067"/>
		<stop  offset="0.5023" style="stop-color:#EE3D73"/>
		<stop  offset="1" style="stop-color:#CCDB2A"/>
	</linearGradient>
	<rect x="141" y="0" fill="url(#SVGID_8_)" width="47.5" height="237.3"/>
	<polygon fill="#CCDB2A" points="188.5,237.3 141,237.3 188.5,189.9 	"/>
	<polygon fill="#94C93D" points="188.5,189.9 141,237.3 141,189.9 	"/>
	<polygon fill="#DBB427" points="188.5,189.9 141,189.9 188.5,142.4 	"/>
	<polygon fill="#E99724" points="188.5,142.4 141,189.9 141,142.4 	"/>
	<polygon fill="#F06C61" points="188.5,142.4 141,142.4 188.5,94.9 	"/>
	<polygon fill="#F05572" points="188.5,94.9 141,142.4 141,94.9 	"/>
	<polygon fill="#EE3D73" points="188.5,94.9 141,94.9 188.5,47.5 	"/>
	<polygon fill="#E41D6C" points="188.5,47.5 141,94.9 141,47.5 	"/>
	<polygon fill="#CA216D" points="188.5,47.5 141,47.5 188.5,0 	"/>
	<polygon fill="#AB2067" points="188.5,0 141,47.5 141,0 	"/>
</g>
<g>
	<linearGradient id="SVGID_9_" gradientUnits="userSpaceOnUse" x1="117.7309" y1="1.4633" x2="117.7309" y2="236.0538">
		<stop  offset="0" style="stop-color:#AB2067"/>
		<stop  offset="0.5023" style="stop-color:#EE3D73"/>
		<stop  offset="1" style="stop-color:#CCDB2A"/>
	</linearGradient>
	<rect x="94" y="0" fill="url(#SVGID_9_)" width="47.5" height="237.3"/>
	<polygon fill="#CCDB2A" points="141.5,237.3 94,237.3 141.5,189.9 	"/>
	<polygon fill="#94C93D" points="141.5,189.9 94,237.3 94,189.9 	"/>
	<polygon fill="#DBB427" points="141.5,189.9 94,189.9 141.5,142.4 	"/>
	<polygon fill="#E99724" points="141.5,142.4 94,189.9 94,142.4 	"/>
	<polygon fill="#F06C61" points="141.5,142.4 94,142.4 141.5,94.9 	"/>
	<polygon fill="#F05572" points="141.5,94.9 94,142.4 94,94.9 	"/>
	<polygon fill="#EE3D73" points="141.5,94.9 94,94.9 141.5,47.5 	"/>
	<polygon fill="#E41D6C" points="141.5,47.5 94,94.9 94,47.5 	"/>
	<polygon fill="#CA216D" points="141.5,47.5 94,47.5 141.5,0 	"/>
	<polygon fill="#AB2067" points="141.5,0 94,47.5 94,0 	"/>
</g>
<g>
	<linearGradient id="SVGID_10_" gradientUnits="userSpaceOnUse" x1="212.1926" y1="1.4633" x2="212.1926" y2="236.0538">
		<stop  offset="0" style="stop-color:#AB2067"/>
		<stop  offset="0.5023" style="stop-color:#EE3D73"/>
		<stop  offset="1" style="stop-color:#CCDB2A"/>
	</linearGradient>
	<rect x="188.5" y="0" fill="url(#SVGID_10_)" width="47.5" height="237.3"/>
	<polygon fill="#CCDB2A" points="235.9,237.3 188.5,237.3 235.9,189.9 	"/>
	<polygon fill="#94C93D" points="235.9,189.9 188.5,237.3 188.5,189.9 	"/>
	<polygon fill="#DBB427" points="235.9,189.9 188.5,189.9 235.9,142.4 	"/>
	<polygon fill="#E99724" points="235.9,142.4 188.5,189.9 188.5,142.4 	"/>
	<polygon fill="#F06C61" points="235.9,142.4 188.5,142.4 235.9,94.9 	"/>
	<polygon fill="#F05572" points="235.9,94.9 188.5,142.4 188.5,94.9 	"/>
	<polygon fill="#EE3D73" points="235.9,94.9 188.5,94.9 235.9,47.5 	"/>
	<polygon fill="#E41D6C" points="235.9,47.5 188.5,94.9 188.5,47.5 	"/>
	<polygon fill="#CA216D" points="235.9,47.5 188.5,47.5 235.9,0 	"/>
	<polygon fill="#AB2067" points="235.9,0 188.5,47.5 188.5,0 	"/>
</g>
<g>
	<linearGradient id="SVGID_11_" gradientUnits="userSpaceOnUse" x1="259.6543" y1="1.4633" x2="259.6543" y2="236.0538">
		<stop  offset="0" style="stop-color:#AB2067"/>
		<stop  offset="0.5023" style="stop-color:#EE3D73"/>
		<stop  offset="1" style="stop-color:#CCDB2A"/>
	</linearGradient>
	<rect x="235.9" y="0" fill="url(#SVGID_11_)" width="47.5" height="237.3"/>
	<polygon fill="#CCDB2A" points="283.4,237.3 235.9,237.3 283.4,189.9 	"/>
	<polygon fill="#94C93D" points="283.4,189.9 235.9,237.3 235.9,189.9 	"/>
	<polygon fill="#DBB427" points="283.4,189.9 235.9,189.9 283.4,142.4 	"/>
	<polygon fill="#E99724" points="283.4,142.4 235.9,189.9 235.9,142.4 	"/>
	<polygon fill="#F06C61" points="283.4,142.4 235.9,142.4 283.4,94.9 	"/>
	<polygon fill="#F05572" points="283.4,94.9 235.9,142.4 235.9,94.9 	"/>
	<polygon fill="#EE3D73" points="283.4,94.9 235.9,94.9 283.4,47.5 	"/>
	<polygon fill="#E41D6C" points="283.4,47.5 235.9,94.9 235.9,47.5 	"/>
	<polygon fill="#CA216D" points="283.4,47.5 235.9,47.5 283.4,0 	"/>
	<polygon fill="#AB2067" points="283.4,0 235.9,47.5 235.9,0 	"/>
</g>
<g>
	<linearGradient id="SVGID_12_" gradientUnits="userSpaceOnUse" x1="70.7309" y1="1.4633" x2="70.7309" y2="236.0538">
		<stop  offset="0" style="stop-color:#AB2067"/>
		<stop  offset="0.5023" style="stop-color:#EE3D73"/>
		<stop  offset="1" style="stop-color:#CCDB2A"/>
	</linearGradient>
	<rect x="47" y="0" fill="url(#SVGID_12_)" width="47.5" height="237.3"/>
	<polygon fill="#CCDB2A" points="94.5,237.3 47,237.3 94.5,189.9 	"/>
	<polygon fill="#94C93D" points="94.5,189.9 47,237.3 47,189.9 	"/>
	<polygon fill="#DBB427" points="94.5,189.9 47,189.9 94.5,142.4 	"/>
	<polygon fill="#E99724" points="94.5,142.4 47,189.9 47,142.4 	"/>
	<polygon fill="#F06C61" points="94.5,142.4 47,142.4 94.5,94.9 	"/>
	<polygon fill="#F05572" points="94.5,94.9 47,142.4 47,94.9 	"/>
	<polygon fill="#EE3D73" points="94.5,94.9 47,94.9 94.5,47.5 	"/>
	<polygon fill="#E41D6C" points="94.5,47.5 47,94.9 47,47.5 	"/>
	<polygon fill="#CA216D" points="94.5,47.5 47,47.5 94.5,0 	"/>
	<polygon fill="#AB2067" points="94.5,0 47,47.5 47,0 	"/>
</g>
<g>
	<linearGradient id="SVGID_13_" gradientUnits="userSpaceOnUse" x1="23.7308" y1="1.4633" x2="23.7308" y2="236.0538">
		<stop  offset="0" style="stop-color:#AB2067"/>
		<stop  offset="0.5023" style="stop-color:#EE3D73"/>
		<stop  offset="1" style="stop-color:#CCDB2A"/>
	</linearGradient>
	<rect x="0" y="0" fill="url(#SVGID_13_)" width="47.5" height="237.3"/>
	<polygon fill="#CCDB2A" points="47.5,237.3 0,237.3 47.5,189.9 	"/>
	<polygon fill="#94C93D" points="47.5,189.9 0,237.3 0,189.9 	"/>
	<polygon fill="#DBB427" points="47.5,189.9 0,189.9 47.5,142.4 	"/>
	<polygon fill="#E99724" points="47.5,142.4 0,189.9 0,142.4 	"/>
	<polygon fill="#F06C61" points="47.5,142.4 0,142.4 47.5,94.9 	"/>
	<polygon fill="#F05572" points="47.5,94.9 0,142.4 0,94.9 	"/>
	<polygon fill="#EE3D73" points="47.5,94.9 0,94.9 47.5,47.5 	"/>
	<polygon fill="#E41D6C" points="47.5,47.5 0,94.9 0,47.5 	"/>
	<polygon fill="#CA216D" points="47.5,47.5 0,47.5 47.5,0 	"/>
	<polygon fill="#AB2067" points="47.5,0 0,47.5 0,0 	"/>
</g>
</svg>
