<?xml version="1.0" encoding="utf-8"?>
<!-- Generator: Adobe Illustrator 18.0.0, SVG Export Plug-In . SVG Version: 6.00 Build 0)  -->
<!DOCTYPE svg PUBLIC "-//W3C//DTD SVG 1.1//EN" "http://www.w3.org/Graphics/SVG/1.1/DTD/svg11.dtd">
<svg version="1.1" id="Layer_1" xmlns="http://www.w3.org/2000/svg" xmlns:xlink="http://www.w3.org/1999/xlink" x="0px" y="0px"
	 viewBox="339 310.7 273 170.6" enable-background="new 339 310.7 273 170.6" xml:space="preserve">
<g>
	
		<linearGradient id="SVGID_1_" gradientUnits="userSpaceOnUse" x1="495.25" y1="790.5367" x2="495.25" y2="555.9462" gradientTransform="matrix(0.7191 0 0 -0.7191 0 880.1854)">
		<stop  offset="0" style="stop-color:#AB2067"/>
		<stop  offset="0.5023" style="stop-color:#EE3D73"/>
		<stop  offset="1" style="stop-color:#CCDB2A"/>
	</linearGradient>
	<rect x="339" y="310.7" fill="url(#SVGID_1_)" width="34.2" height="170.6"/>
	<polygon fill="#CCDB2A" points="373.1,481.3 339,481.3 373.1,447.2 	"/>
	<polygon fill="#94C93D" points="373.1,447.2 339,481.3 339,447.2 	"/>
	<polygon fill="#DBB427" points="373.1,447.2 339,447.2 373.1,413.1 	"/>
	<polygon fill="#E99724" points="373.1,413.1 339,447.2 339,413.1 	"/>
	<polygon fill="#F06C61" points="373.1,413.1 339,413.1 373.1,378.9 	"/>
	<polygon fill="#F05572" points="373.1,378.9 339,413.1 339,378.9 	"/>
	<polygon fill="#EE3D73" points="373.1,378.9 339,378.9 373.1,344.8 	"/>
	<polygon fill="#E41D6C" points="373.1,344.8 339,378.9 339,344.8 	"/>
	<polygon fill="#CA216D" points="373.1,344.8 339,344.8 373.1,310.7 	"/>
	<polygon fill="#AB2067" points="373.1,310.7 339,344.8 339,310.7 	"/>
</g>
<g>
	
		<linearGradient id="SVGID_2_" gradientUnits="userSpaceOnUse" x1="542.65" y1="790.5367" x2="542.65" y2="555.9462" gradientTransform="matrix(0.7191 0 0 -0.7191 0 880.1854)">
		<stop  offset="0" style="stop-color:#AB2067"/>
		<stop  offset="0.5023" style="stop-color:#EE3D73"/>
		<stop  offset="1" style="stop-color:#CCDB2A"/>
	</linearGradient>
	<rect x="373.1" y="310.7" fill="url(#SVGID_2_)" width="34.2" height="170.6"/>
	<polygon fill="#CCDB2A" points="407.3,481.3 373.1,481.3 407.3,447.2 	"/>
	<polygon fill="#94C93D" points="407.3,447.2 373.1,481.3 373.1,447.2 	"/>
	<polygon fill="#DBB427" points="407.3,447.2 373.1,447.2 407.3,413.1 	"/>
	<polygon fill="#E99724" points="407.3,413.1 373.1,447.2 373.1,413.1 	"/>
	<polygon fill="#F06C61" points="407.3,413.1 373.1,413.1 407.3,378.9 	"/>
	<polygon fill="#F05572" points="407.3,378.9 373.1,413.1 373.1,378.9 	"/>
	<polygon fill="#EE3D73" points="407.3,378.9 373.1,378.9 407.3,344.8 	"/>
	<polygon fill="#E41D6C" points="407.3,344.8 373.1,378.9 373.1,344.8 	"/>
	<polygon fill="#CA216D" points="407.3,344.8 373.1,344.8 407.3,310.7 	"/>
	<polygon fill="#AB2067" points="407.3,310.7 373.1,344.8 373.1,310.7 	"/>
</g>
<g>
	<line fill="none" x1="407.3" y1="310.7" x2="612" y2="310.7"/>
	<polygon fill="#AB2067" points="612,310.7 577.9,344.8 577.9,310.7 	"/>
	<polygon fill="#E41D6C" points="577.9,344.8 543.8,378.9 543.8,344.8 	"/>
	<polygon fill="#CA216D" points="577.9,344.8 543.8,344.8 577.9,310.7 	"/>
	<polygon fill="#AB2067" points="577.9,310.7 543.8,344.8 543.8,310.7 	"/>
	<polygon fill="#F05572" points="543.8,378.9 509.6,413.1 509.6,378.9 	"/>
	<polygon fill="#EE3D73" points="543.8,378.9 509.6,378.9 543.8,344.8 	"/>
	<polygon fill="#E41D6C" points="543.8,344.8 509.6,378.9 509.6,344.8 	"/>
	<polygon fill="#CA216D" points="543.8,344.8 509.6,344.8 543.8,310.7 	"/>
	<polygon fill="#AB2067" points="543.8,310.7 509.6,344.8 509.6,310.7 	"/>
	<polygon fill="#E99724" points="509.6,413.1 475.5,447.2 475.5,413.1 	"/>
	<polygon fill="#F06C61" points="509.6,413.1 475.5,413.1 509.6,378.9 	"/>
	<polygon fill="#F05572" points="509.6,378.9 475.5,413.1 475.5,378.9 	"/>
	<polygon fill="#EE3D73" points="509.6,378.9 475.5,378.9 509.6,344.8 	"/>
	<polygon fill="#E41D6C" points="509.6,344.8 475.5,378.9 475.5,344.8 	"/>
	<polygon fill="#CA216D" points="509.6,344.8 475.5,344.8 509.6,310.7 	"/>
	<polygon fill="#AB2067" points="509.6,310.7 475.5,344.8 475.5,310.7 	"/>
	<polygon fill="#94C93D" points="475.5,447.2 441.4,481.3 441.4,447.2 	"/>
	<polygon fill="#DBB427" points="475.5,447.2 441.4,447.2 475.5,413.1 	"/>
	<polygon fill="#E99724" points="475.5,413.1 441.4,447.2 441.4,413.1 	"/>
	<polygon fill="#F06C61" points="475.5,413.1 441.4,413.1 475.5,378.9 	"/>
	<polygon fill="#F05572" points="475.5,378.9 441.4,413.1 441.4,378.9 	"/>
	<polygon fill="#EE3D73" points="475.5,378.9 441.4,378.9 475.5,344.8 	"/>
	<polygon fill="#E41D6C" points="475.5,344.8 441.4,378.9 441.4,344.8 	"/>
	<polygon fill="#CA216D" points="475.5,344.8 441.4,344.8 475.5,310.7 	"/>
	<polygon fill="#AB2067" points="475.5,310.7 441.4,344.8 441.4,310.7 	"/>
	<polygon fill="#CCDB2A" points="441.4,481.3 407.3,481.3 441.4,447.2 	"/>
	<polygon fill="#94C93D" points="441.4,447.2 407.3,481.3 407.3,447.2 	"/>
	<line fill="none" x1="407.3" y1="481.3" x2="441.4" y2="481.3"/>
	<polygon fill="#DBB427" points="441.4,447.2 407.3,447.2 441.4,413.1 	"/>
	<polygon fill="#E99724" points="441.4,413.1 407.3,447.2 407.3,413.1 	"/>
	<polygon fill="#F06C61" points="441.4,413.1 407.3,413.1 441.4,378.9 	"/>
	<polygon fill="#F05572" points="441.4,378.9 407.3,413.1 407.3,378.9 	"/>
	<polygon fill="#EE3D73" points="441.4,378.9 407.3,378.9 441.4,344.8 	"/>
	<polygon fill="#E41D6C" points="441.4,344.8 407.3,378.9 407.3,344.8 	"/>
	<polygon fill="#CA216D" points="441.4,344.8 407.3,344.8 441.4,310.7 	"/>
	<polygon fill="#AB2067" points="441.4,310.7 407.3,344.8 407.3,310.7 	"/>
</g>
</svg>
